SplineFontDB: 3.0
FontName: m0
FullName: m0
FamilyName: m0
Weight: Medium
Copyright: Created by Khaled Hosny with Sorts Mill Tools 2.1.0_alpha1 <http://bitbucket.org/sortsmill/sortsmill-tools>
UComments: "2015-10-10: Created." 
Version: 001.000
StrokeWidth: 32
ItalicAngle: 0
UnderlinePosition: -100
UnderlineWidth: 50
Ascent: 800
Descent: 200
LayerCount: 2
Layer: 0 0 "Back"  1
Layer: 1 0 "Fore"  0
XUID: [1021 670 513581992 4353041]
FSType: 0
OS2_WeightWidthSlopeOnly: 0
OS2_UseTypoMetrics: 1
CreationTime: 1444496159
ModificationTime: 1444912420
OS2TypoAscent: 0
OS2TypoAOffset: 1
OS2TypoDescent: 0
OS2TypoDOffset: 1
OS2TypoLinegap: 90
OS2WinAscent: 0
OS2WinAOffset: 1
OS2WinDescent: 0
OS2WinDOffset: 1
HheadAscent: 0
HheadAOffset: 1
HheadDescent: 0
HheadDOffset: 1
OS2Vendor: 'PfEd'
MarkAttachClasses: 1
DEI: 91125
Encoding: UnicodeBmp
Compacted: 1
UnicodeInterp: none
NameList: AGL For New Fonts
DisplaySize: -96
AntiAlias: 1
FitToEm: 1
WinInfo: 36 6 5
BeginPrivate: 0
EndPrivate
BeginChars: 65564 64

StartChar: uni0627
Encoding: 1575 1575 0
Width: 1000
VWidth: -36
Flags: H
LayerCount: 2
Back
SplineSet
526 624 m 1
 526 33 l 2
 526 25 521 17 511 17 c 9
EndSplineSet
Fore
SplineSet
510 624 m 1
 542 624 l 1
 542 33 l 0
 542 19 531 1 510 1 c 1
 510 624 l 1
EndSplineSet
EndChar

StartChar: uni062D
Encoding: 1581 1581 1
Width: 1000
VWidth: -36
Flags: HW
LayerCount: 2
Back
SplineSet
643 -259 m 1
 643 -291 l 1
 402 -290 l 1
 345 -291 302 -249 302 -194 c 0
 302 -79 l 0
 302 -25 349 33 410 33 c 0
 655 33 l 1
 663 33 l 17
 661.911132812 33.244140625 661.377929688 33.3779296875 659 34 c 5
 620 44 589 73 563 101 c 0
 522 146 481 219 375 259 c 1
 387 289 l 1
 503 245 550 164 587 123 c 0
 617 90 649 63 682 63 c 0
 698 63 l 1
 698 47 l 0
 698 34 686 -1 655 1 c 1
 410 1 l 0
 369 1 334 -41 334 -79 c 0
 334 -194 l 0
 334 -231 361 -259 402 -258 c 1
 643 -259 l 1
643 -275 m 5
 402 -274 l 6
 353 -275 318 -240 318 -194 c 6
 318 -79 l 6
 318 -33 359 17 410 17 c 6
 655 17 l 6
 673 16 682 38 682 47 c 5
 641 47 605 79 575 112 c 4
 536 155 492 232 381 274 c 13
EndSplineSet
Fore
SplineSet
643 -258 m 1
 643 -290 l 1
 402 -290 l 2
 345 -291 302 -249 302 -194 c 0
 302 -79 l 0
 302 -25 349 33 410 33 c 2
 663 33 l 17
 621 42 590 72 563 101 c 0
 522 146 481 219 375 259 c 1
 387 289 l 1
 503 245 550 164 587 123 c 0
 624 83 649 63 698 63 c 1
 698 47 l 0
 698 34 686 1 655 1 c 2
 410 1 l 2
 369 1 334 -41 334 -79 c 0
 334 -194 l 0
 334 -231 361 -259 402 -258 c 2
 643 -258 l 1
EndSplineSet
EndChar

StartChar: uni062F
Encoding: 1583 1583 2
Width: 1000
VWidth: -36
Flags: HW
LayerCount: 2
Back
SplineSet
472 294 m 17
 544 258 652 197 658 68 c 0
 658 45 644 16 606 16 c 2
 342 16 l 1
EndSplineSet
Fore
SplineSet
464.844726562 279.689453125 m 1
 479.155273438 308.310546875 l 1
 550.985351562 272.395507812 667.512695312 207.840820312 673.982421875 68.7431640625 c 0
 673.994140625 68.5078125 674 68.1748046875 674 68 c 0
 674 39.2548828125 654.805664062 0 606 0 c 2
 342 0 l 1
 342 32 l 1
 606 32 l 2
 632.951171875 32 641.77734375 50.1796875 641.999023438 67.6630859375 c 0
 635.918945312 185.927734375 537.345703125 243.438476562 464.844726562 279.689453125 c 1
EndSplineSet
EndChar

StartChar: uni0631
Encoding: 1585 1585 3
Width: 1000
VWidth: -36
Flags: HW
LayerCount: 2
Back
SplineSet
543 151 m 1
 543 -37 l 2
 543 -119 525 -184 444 -184 c 2
 372 -184 l 1
EndSplineSet
Fore
SplineSet
527 151 m 1
 559 151 l 1
 559 -37 l 0
 559 -119.111328125 539.268554688 -200 444 -200 c 0
 372 -200 l 1
 372 -168 l 1
 444 -168 l 0
 510.731445312 -168 527 -118.888671875 527 -37 c 0
 527 151 l 1
EndSplineSet
EndChar

StartChar: uni066E
Encoding: 1646 1646 4
Width: 1000
VWidth: -36
Flags: HW
LayerCount: 2
Back
SplineSet
-35 585 m 0,0,1
781 264 m 1,25,-1
 781 69 l 2,26,27
 781 43 754 17 729 17 c 2,28,-1
 337 17 l 2,29,30
 274 17 219 64 219 124 c 2,31,-1
 219 264 l 1
EndSplineSet
Fore
SplineSet
765 264 m 1
 797 264 l 1
 797 69 l 2
 797 33.3076171875 763.383789062 1 729 1 c 2
 337 1 l 2
 266.68359375 1 203 53.55078125 203 124 c 2
 203 264 l 1
 235 264 l 1
 235 124 l 2
 235 74.44921875 281.31640625 33 337 33 c 2
 729 33 l 2
 744.616210938 33 765 52.6923828125 765 69 c 2
 765 264 l 1
EndSplineSet
EndChar

StartChar: uni0633
Encoding: 1587 1587 5
Width: 1000
VWidth: -36
Flags: HW
LayerCount: 2
Back
SplineSet
848 340 m 5
 848 68 l 6
 848 39 825 16 794 16 c 6
 679 16 l 5
674 340 m 5
 674 68 l 6
 674 39 652 16 621 16 c 6
 509 16 l 5
501 342 m 5
 501 -133 l 6
 501 -162 479 -185 448 -185 c 2
 181 -185 l 2
 154 -185 132 -158 132 -129 c 2
 132 149 l 1
EndSplineSet
Fore
SplineSet
832 340 m 1
 864 340 l 1
 864 68 l 2
 864 29.951171875 833.309570312 0 794 0 c 2
 679 0 l 1
 679 32 l 1
 794 32 l 2
 816.690429688 32 832 48.048828125 832 68 c 2
 832 340 l 1
658 340 m 1
 690 340 l 1
 690 68 l 2
 690 30.3623046875 660.595703125 0 621 0 c 2
 509 0 l 1
 509 32 l 1
 621 32 l 2
 643.404296875 32 658 47.6376953125 658 68 c 2
 658 340 l 1
485 342 m 1
 517 342 l 1
 517 -133 l 2
 517 -170.637695312 487.595703125 -201 448 -201 c 2
 181 -201 l 2
 142.857421875 -201 116 -164.8984375 116 -129 c 2
 116 149 l 1
 148 149 l 1
 148 -129 l 2
 148 -151.1015625 165.142578125 -169 181 -169 c 2
 448 -169 l 2
 470.404296875 -169 485 -153.362304688 485 -133 c 2
 485 342 l 1
EndSplineSet
EndChar

StartChar: uni0635
Encoding: 1589 1589 6
Width: 1000
VWidth: -36
Flags: HW
LayerCount: 2
Back
SplineSet
457 32 m 1
 457 0 l 1
 829 0 l 0
 868.217773438 0 899.318359375 30.052734375 897.9921875 68.5146484375 c 1
 895.994140625 135.43359375 l 1
 893.924804688 220.283203125 866.912109375 273.510742188 808.880859375 297.883789062 c 1
 676.301757812 347.029296875 570.653320312 181.693359375 470.029296875 42.3681640625 c 1
 496 24 l 25
 502 32 l 21
 607 178 699.65625 303.584960938 797.122070312 268.115234375 c 1
 839.893554688 249.84375 862.08203125 213.456054688 864.006835938 134.522460938 c 0
 866.009765625 67.4482421875 l 0
 866.680664062 47.978515625 851.783203125 32 829 32 c 0
 521.106796117 32 l 1
441 241 m 1
 473 241 l 1
 473 -123 l 2
 473 -160.9296875 443.205078125 -190 403.969726562 -190 c 2
 136.969726562 -189 l 2
 97.84375 -189 72 -152.619140625 72 -117 c 2
 72 162 l 1
 104 162 l 1
 104 -117 l 2
 104 -139.380859375 120.181640625 -157 137 -157 c 2
 404.059570312 -158 l 2
 426.770507812 -158 441 -143.0703125 441 -123 c 2
 441 241 l 1
483 33 m 17
 587 177 687 326 803 283 c 0
 853 262 878 217 880 135 c 1
 882 68 l 2
 883 39 860 16 829 16 c 2
 457 16 l 1
457 241 m 1
 457 -123 l 2
 457 -152 435 -174 404 -174 c 2
 137 -173 l 2
 109 -173 88 -146 88 -117 c 2
 88 162 l 1
EndSplineSet
Fore
SplineSet
457 32 m 1
 457 0 l 1
 829 0 l 2
 868.217773438 0 899.318359375 30.052734375 897.9921875 68.5146484375 c 2
 895.994140625 135.43359375 l 0
 893.924804688 220.283203125 866.912109375 273.510742188 808.880859375 297.883789062 c 0
 676.301757812 347.029296875 570.653320312 181.693359375 470.029296875 42.3681640625 c 1
 496 24 l 17
 599.791618002 165.722157336 695.140131022 305.228465345 797.122070312 268.115234375 c 0
 839.893554688 249.84375 862.08203125 213.456054688 864.006835938 134.522460938 c 0
 866.009765625 67.4482421875 l 2
 866.680664062 47.978515625 851.783203125 32 829 32 c 2
 457 32 l 1
441 241 m 1
 441 -123 l 2
 441 -143.0703125 426.770507812 -158 404.059570312 -158 c 2
 137 -157 l 2
 120.181640625 -157 104 -139.380859375 104 -117 c 2
 104 162 l 1
 72 162 l 1
 72 -117 l 2
 72 -152.619140625 97.84375 -189 136.969726562 -189 c 2
 403.969726562 -190 l 2
 443.205078125 -190 473 -160.9296875 473 -123 c 2
 473 241 l 1
 441 241 l 1
EndSplineSet
EndChar

StartChar: uni0637
Encoding: 1591 1591 7
Width: 1000
VWidth: -36
Flags: HW
LayerCount: 2
Back
SplineSet
360 34 m 17
 464 178 564 327 680 284 c 0
 730 263 754 218 756 136 c 1
 759 68 l 2
 760 39 737 17 706 17 c 2
 241 17 l 1
373 625 m 1
 373 52 l 1
EndSplineSet
Fore
SplineSet
241 32 m 1
 241 0 l 1
 705 0 l 2
 744.217773438 0 775.318359375 30.052734375 773.9921875 68.5146484375 c 2
 771.994140625 135.43359375 l 0
 769.924804688 220.283203125 742.912109375 273.510742188 684.880859375 297.883789062 c 0
 552.301757812 347.029296875 446.653320312 181.693359375 346.029296875 42.3681640625 c 1
 372 24 l 17
 475.791992188 165.721679688 571.139648438 305.228515625 673.122070312 268.115234375 c 0
 715.893554688 249.84375 738.08203125 213.456054688 740.006835938 134.522460938 c 0
 742.009765625 67.4482421875 l 2
 742.680664062 47.978515625 727.783203125 32 705 32 c 2
 241 32 l 1
345 625 m 1
 345 22 l 1
 377 22 l 1
 377 625 l 1
 345 625 l 1
EndSplineSet
EndChar

StartChar: uni0639
Encoding: 1593 1593 8
Width: 1000
VWidth: -36
Flags: HW
LayerCount: 2
Back
SplineSet
428.028320312 386.493164062 m 1
 428.028320312 386.493164062 l 1
665 -256 m 1
 377 -256 l 2
 353 -256 335 -236 335 -209 c 2
 335 -32 l 2
 336 -6 348 16 379 16 c 2
 665 17 l 1
626 219 m 0
 609 226 593 232 578 236 c 0
 422 280 346 181 497 17 c 0
EndSplineSet
Fore
SplineSet
665 -240 m 1
 665 -272 l 1
 377 -272 l 2
 342.919921875 -272 319 -243.108398438 319 -209 c 2
 319 -31.6923828125 l 2
 320.188476562 -0.787109375 337.161132812 32 378.971679688 32 c 2
 664.944335938 33 l 1
 665.055664062 1 l 1
 379.055664062 0 l 2
 358.975585938 0 352.065429688 -10.3388671875 351 -32.2939453125 c 2
 351 -209 l 2
 351 -228.891601562 363.080078125 -240 377 -240 c 2
 665 -240 l 1
632.091796875 233.794921875 m 1
 619.908203125 204.205078125 l 1
 603.131835938 211.11328125 587.915039062 216.796875 573.766601562 220.569335938 c 0
 511.732421875 238.06640625 467.768554688 230.306640625 447.32421875 211.510742188 c 0
 420.252929688 186.622070312 419.947265625 124.307617188 508.770507812 27.837890625 c 1
 485.229492188 6.162109375 l 1
 396.026367188 103.044921875 375.458984375 188.909179688 425.666015625 235.067382812 c 0
 459.036132812 265.747070312 516.189453125 270.057617188 582.233398438 251.430664062 c 0
 598.084960938 247.203125 614.868164062 240.88671875 632.091796875 233.794921875 c 1
EndSplineSet
EndChar

StartChar: uni0644
Encoding: 1604 1604 9
Width: 1000
VWidth: -36
Flags: HW
LayerCount: 2
Back
SplineSet
684 660 m 1
 684 -78 l 2
 684 -105 664 -132 630 -132 c 2
 371 -132 l 2
 338 -132 316 -111 316 -79 c 2
 316 110 l 1
EndSplineSet
Fore
SplineSet
668 660 m 1
 700 660 l 1
 700 -78 l 2
 700 -112.54296875 673.778320312 -148 630 -148 c 2
 371 -148 l 2
 330.251953125 -148 300 -119.803710938 300 -79 c 2
 300 110 l 1
 332 110 l 1
 332 -79 l 2
 332 -102.196289062 345.748046875 -116 371 -116 c 2
 630 -116 l 2
 654.221679688 -116 668 -97.45703125 668 -78 c 2
 668 660 l 1
EndSplineSet
EndChar

StartChar: uni0643
Encoding: 1603 1603 10
Width: 1000
VWidth: -36
Flags: HW
LayerCount: 2
Back
SplineSet
549 410 m 5
 549 378 l 5
 455.756835938 378 l 5
 489.54296875 306.674804688 l 5
 491.081054688 303.213867188 494.927734375 299.100585938 495.357421875 289.331054688 c 4
 496.15625 271.19921875 476.938476562 267 468 267 c 4
 357 267 l 5
 357 299 l 5
 457.76953125 299 l 5
 424.45703125 369.325195312 l 5
 424.0703125 370.196289062 408.822265625 397.641601562 433.743164062 407.474609375 c 4
 439.01953125 409.556640625 444.143554688 410 450 410 c 4
 549 410 l 5
688 623 m 1
 688 71 l 2
 688 44 668 17 634 17 c 2
 312 17 l 1
549 394 m 1
 450 394 l 2
 430 394 435 385 439 376 c 2
 475 300 l 2
 479 291 485 283 468 283 c 2
 357 283 l 1
EndSplineSet
Fore
SplineSet
672 623 m 1
 704 623 l 1
 704 71 l 2
 704 36.45703125 677.778320312 1 634 1 c 2
 312 1 l 1
 312 33 l 1
 634 33 l 2
 658.221679688 33 672 51.54296875 672 71 c 2
 672 623 l 1
549 410 m 1
 549 378 l 1
 455.756835938 378 l 1
 489.54296875 306.674804688 l 2
 492.312792931 300.442260625 499.666666667 288.333333333 491.333333333 276.317696178 c 0
 485.957598843 268.566551168 474.202387688 267 468 267 c 0
 357 267 l 1
 357 299 l 1
 457.76953125 299 l 1
 424.45703125 369.325195312 l 2
 424.132933826 370.055232944 413.37081166 389.449978769 424.563034346 401.5 c 0
 429.676818105 407.005716299 439.542459535 410 450 410 c 2
 549 410 l 1
EndSplineSet
EndChar

StartChar: uni0645
Encoding: 1605 1605 11
Width: 1000
VWidth: -36
Flags: HW
LayerCount: 2
Back
SplineSet
291 17 m 1
 385 17 l 2
 427 17 442 45 443 71 c 2
 443 202 l 2
 442 306 570 335 637 265 c 0
 785 109 682 17 555 17 c 2
 457 17 l 1
EndSplineSet
Fore
SplineSet
291 1 m 1
 291 33 l 1
 385 33 l 2
 417.461914062 33 426.043945312 51.7529296875 427 71.3095703125 c 2
 427 201.922851562 l 2
 426.6640625 236.845703125 439.626953125 265.84375 460.374023438 285.911132812 c 0
 508.783203125 332.735351562 595.698242188 331.291015625 648.583007812 276.038085938 c 0
 701.701171875 220.048828125 725.689453125 170.041015625 725.888671875 126.35546875 c 0
 726.272460938 42.14453125 640.478515625 1 555 1 c 0
 457 1 l 1
 457 33 l 1
 555 33 l 0
 634.90625 33 694.146484375 69.86328125 693.889648438 126.209960938 c 0
 693.745117188 157.84765625 675.591796875 201.075195312 625.392578125 253.98828125 c 0
 584.293945312 296.926757812 517.088867188 296.249023438 482.62109375 262.91015625 c 0
 468.13671875 248.900390625 458.739257812 229.200195312 459 202.077148438 c 2
 459 70.6923828125 l 2
 457.751953125 38.2421875 436.69140625 1 385 1 c 2
 291 1 l 1
EndSplineSet
EndChar

StartChar: uni0647
Encoding: 1607 1607 12
Width: 1000
VWidth: -36
Flags: HW
LayerCount: 2
Back
SplineSet
609 328 m 5
 609 69 l 6
 609 41 585 17 557 17 c 6
 447 17 l 2
 375 17 332 93 384 150 c 0
 453 215 510 251 555 359 c 9
EndSplineSet
Fore
SplineSet
593 328 m 1
 625 328 l 1
 625 69 l 2
 625 32.0087890625 593.991210938 1 557 1 c 2
 447 1 l 2
 418.76953125 1 393.802734375 11.1591796875 375.66015625 27.591796875 c 0
 339.927734375 59.9560546875 331.857421875 116.583984375 372.1796875 160.783203125 c 0
 372.439453125 161.068359375 372.8203125 161.450195312 373.029296875 161.646484375 c 0
 443.544921875 228.07421875 496.76171875 260.829101562 540.23046875 365.154296875 c 1
 569.76953125 352.845703125 l 1
 523.333007812 241.3984375 463.213867188 202.516601562 395.426757812 138.783203125 c 0
 367.786132812 107.962890625 373.478515625 72.3662109375 397.5703125 50.9248046875 c 0
 409.734375 40.0986328125 426.712890625 33 447 33 c 2
 557 33 l 2
 576.008789062 33 593 49.9912109375 593 69 c 2
 593 328 l 1
EndSplineSet
EndChar

StartChar: uni0648
Encoding: 1608 1608 13
Width: 1000
VWidth: -36
Flags: HW
LayerCount: 2
Back
SplineSet
602 16 m 1
 441 16 l 2
 379.9921875 16 334 67 337 119 c 0
 353 299 600 351 601 197 c 2
 601 -37 l 2
 601 -111 546 -183 463 -183 c 2
 270 -183 l 1
EndSplineSet
Fore
SplineSet
585 196.948242188 m 2
 584.65234375 250.416015625 552.514648438 272.252929688 509.619140625 271.920898438 c 0
 445.213867188 271.421875 362.127929688 216.110351562 352.958007812 117.827148438 c 0
 350.967773438 76.0947265625 388.517578125 32 441 32 c 2
 601 32 l 1
 601 0 l 1
 441 0 l 2
 371.155273438 0 317.448242188 57.9013671875 321.041015625 120.168945312 c 0
 331.3515625 236.166015625 429.032226562 303.296875 509.37109375 303.919921875 c 0
 566.14453125 304.359375 616.532226562 269.102539062 617 197.051757812 c 2
 617 -37 l 2
 617 -118.215820312 556.362304688 -199 463 -199 c 2
 270 -199 l 1
 270 -167 l 1
 463 -167 l 2
 535.637695312 -167 585 -103.784179688 585 -37 c 2
 585 196.948242188 l 2
EndSplineSet
EndChar

StartChar: uni0649
Encoding: 1609 1609 14
Width: 1000
VWidth: -36
Flags: HW
LayerCount: 2
Back
SplineSet
739 33 m 1
 739 1 l 1
 601 1 l 0
 588.569335938 1 579.174804688 -2.6337890625 573.342773438 -7.4052734375 c 0
 563.641601562 -15.341796875 558.73828125 -29.48046875 576.33203125 -50.8056640625 c 1
 687.37890625 -184.862304688 l 1
 694.879882812 -194.127929688 698.592773438 -205.35546875 698.661132812 -216.842773438 c 4
 698.8359375 -245.97265625 674.4609375 -273 632 -273 c 0
 402 -273 l 0
 333.74609375 -273 245 -235.1796875 245 -132 c 0
 245 64 l 1
 277 64 l 1
 277 -132 l 0
 277 -210.8203125 342.25390625 -241 402 -241 c 0
 632 -241 l 0
 660.405273438 -241 666.720703125 -226.846679688 666.662109375 -217.034179688 c 0
 666.634765625 -212.51171875 665.025390625 -208.108398438 662.62109375 -205.137695312 c 1
 551.678710938 -71.20703125 l 0
 525.954101562 -40.025390625 527.686523438 -3.412109375 553.080078125 17.3623046875 c 0
 565.646484375 27.642578125 582.475585938 33 601 33 c 0
 739 33 l 1
739 17 m 1
 601 17 l 2
 556 17 531 -21 564 -61 c 2
 675 -195 l 2
 692 -216 682 -257 632 -257 c 2
 402 -257 l 2
 338 -257 261 -223 261 -132 c 2
 261 64 l 1
EndSplineSet
Fore
SplineSet
739 33 m 1
 739 1 l 1
 601 1 l 2
 570.914171616 1 550.054661681 -18.9551467844 576.33203125 -50.8056640625 c 2
 687.37890625 -184.862304688 l 2
 718.340576683 -223.107888475 686.464374908 -273 632 -273 c 2
 402 -273 l 2
 333.74609375 -273 245 -235.1796875 245 -132 c 2
 245 64 l 1
 277 64 l 1
 277 -132 l 2
 277 -210.8203125 342.25390625 -241 402 -241 c 2
 632 -241 l 2
 664.351524589 -241 674.794683133 -220.17914897 662.62109375 -205.137695312 c 2
 551.678710938 -71.20703125 l 2
 508.443189345 -18.7998410419 545.912490354 33 601 33 c 2
 739 33 l 1
EndSplineSet
EndChar

StartChar: uni0661
Encoding: 1633 1633 15
Width: 1000
VWidth: 0
Flags: HW
LayerCount: 2
Back
SplineSet
500 623 m 1
 500 -36 l 1
EndSplineSet
Fore
SplineSet
484 659 m 1
 516 659 l 1
 516 0 l 1
 484 0 l 1
 484 659 l 1
EndSplineSet
EndChar

StartChar: uni0662
Encoding: 1634 1634 16
Width: 1000
VWidth: 0
Flags: HW
LayerCount: 2
Back
SplineSet
613 568 m 1
 439 568 l 2
 410 568 387 545 387 514 c 2
 387 -36 l 1
EndSplineSet
Fore
SplineSet
613 620 m 1
 613 588 l 1
 439 588 l 2
 419.048556837 588 403 572.69040138 403 550 c 2
 403 0 l 1
 371 0 l 1
 371 550 l 2
 371 589.30959862 400.951443163 620 439 620 c 2
 613 620 l 1
EndSplineSet
EndChar

StartChar: uni0663
Encoding: 1635 1635 17
Width: 1000
VWidth: 0
Flags: HW
LayerCount: 2
Back
SplineSet
684 624 m 1
 684 441 l 2
 684 412 662 389 631 389 c 2
 508 389 l 1
500 624 m 1
 500 441 l 2
 500 412 478 389 447 389 c 2
 317 389 l 1
316 624 m 1
 316 -36 l 1
EndSplineSet
Fore
SplineSet
668 660 m 1
 700 660 l 1
 700 477 l 2
 700 439.362171374 670.595501685 409 631 409 c 2
 508 409 l 2
 508 441 l 2
 631 441 l 2
 653.404498315 441 668 456.637828626 668 477 c 2
 668 660 l 1
484 660 m 1
 516 660 l 1
 516 477 l 2
 516 439.362171374 486.595501685 409 447 409 c 2
 317 409 l 1
 317 441 l 1
 447 441 l 2
 469.404498315 441 484 456.637828626 484 477 c 2
 484 660 l 1
300 660 m 1
 332 660 l 1
 332 0 l 1
 300 0 l 1
 300 660 l 1
EndSplineSet
EndChar

StartChar: uni0664
Encoding: 1636 1636 18
Width: 1000
VWidth: -36
Flags: HW
LayerCount: 2
Back
SplineSet
546 572 m 1
 389 456 l 2
 360 435 336 419 381 388 c 2
 509 300 l 1
 375 107 l 2
 355 79 318 17 373 17 c 2
 656 16 l 1
EndSplineSet
Fore
SplineSet
536.4921875 584.868164062 m 1
 555.5078125 559.131835938 l 1
 398.446289062 443.0859375 l 0
 386.362304688 434.334960938 376.75390625 426.90234375 373.466796875 422.275390625 c 0
 372.077148438 420.318359375 365.086914062 418.391601562 390.064453125 401.184570312 c 0
 518.064453125 313.184570312 l 2
 525.220703125 308.264648438 527.190429688 298.14453125 522.142578125 290.875 c 2
 388.08203125 97.787109375 l 2
 376.0625 80.9599609375 360.176757812 52.203125 360.163085938 39.4306640625 c 0
 360.159179688 35.537109375 357.48046875 33 373.028320312 33 c 2
 656.056640625 32 l 1
 655.943359375 0 l 1
 372.943359375 1 l 2
 345.803710938 1 328.139648438 17.181640625 328.163085938 39.46484375 c 0
 328.193359375 67.888671875 349.478515625 98.7978515625 361.91796875 116.212890625 c 2
 486.690429688 295.921875 l 1
 371.935546875 374.815429688 l 2
 319.105011931 411.209274506 344.467330419 443.5082275 379.553710938 468.9140625 c 2
 536.4921875 584.868164062 l 1
EndSplineSet
EndChar

StartChar: uni0665
Encoding: 1637 1637 19
Width: 1000
VWidth: -36
Flags: HW
LayerCount: 2
Back
SplineSet
557 531 m 0
 682 454 791 6 501 4 c 0
 211 2 317 448 439 528 c 0
 477 553 519 554 557 531 c 0
EndSplineSet
Fore
SplineSet
548.662109375 517.344726562 m 0
 515.752929688 537.262695312 481.067382812 536.5234375 447.793945312 514.633789062 c 0
 389.867756194 476.649066705 333.446645898 339.85697149 331.715069805 220.100006104 c 0
 330.018907163 102.792258782 386.347887892 19.1536310606 500.889648438 20 c 0
 626.660688887 20.9293440366 670.094726562 109.770507812 669.236328125 219.795898438 c 0
 668.2734375 343.217773438 606.270507812 481.857421875 548.662109375 517.344726562 c 0
565.337890625 544.655273438 m 0
 639.413085938 499.025390625 700.215820312 350.680664062 701.235351562 220.045898438 c 0
 702.157226562 101.805664062 649.833007812 -10.9736328125 501.110351562 -12 c 0
 362.441122734 -12.9564472509 297.8294224 85.1778848413 298.441730065 220.100006104 c 0
 299.034921731 350.809913128 361.043752833 496.013859553 430.206054688 541.366210938 c 0
 472.932617188 569.4765625 522.23046875 570.747070312 565.337890625 544.655273438 c 0
EndSplineSet
EndChar

StartChar: uni0666
Encoding: 1638 1638 20
Width: 1000
VWidth: 0
Flags: HW
LayerCount: 2
Back
SplineSet
340 568 m 1
 608 568 l 2
 637 568 660 545 660 514 c 2
 660 -37 l 1
EndSplineSet
Fore
SplineSet
340 589 m 1
 340 621 l 1
 608 621 l 0
 646.048828125 621 676 590.309570312 676 551 c 0
 676 0 l 1
 644 0 l 1
 644 551 l 0
 644 573.690429688 627.951171875 589 608 589 c 0
 340 589 l 1
EndSplineSet
EndChar

StartChar: uni0667
Encoding: 1639 1639 21
Width: 1000
VWidth: -36
Flags: HW
LayerCount: 2
Back
SplineSet
678.520507812 606.049804688 m 1
 709.479492188 597.950195312 l 1
 557.479492188 16.9501953125 l 2
 553.394278258 1.43706267867 537.253479198 -7.96549070563 519.5 -8.66236028374 c 0
 504.020633436 -9.26996511018 482.449699705 -1.68177251383 476.76171875 16.1220703125 c 2
 290.76171875 597.122070312 l 1
 321.23828125 606.877929688 l 1
 506.604492188 27.8583984375 l 1
 511.037109375 22.501953125 524.698242188 23.3798828125 526.87109375 26.3876953125 c 1
 678.520507812 606.049804688 l 1
694 602 m 1
 542 21 l 0
 535 3 502 3 492 21 c 0
 306 602 l 1
EndSplineSet
Fore
SplineSet
678.520507812 606.049804688 m 1
 709.479492188 597.950195312 l 1
 557.479492188 16.9501953125 l 2
 553.394278258 1.43706267867 537.253479198 -7.96549070563 519.5 -8.66236028374 c 0
 504.020633436 -9.26996511018 482.449699705 -1.68177251383 476.76171875 16.1220703125 c 2
 290.76171875 597.122070312 l 1
 321.23828125 606.877929688 l 1
 506.604492188 27.8583984375 l 0
 509.037109375 22.501953125 526.698242188 22.3798828125 527.87109375 28.3876953125 c 0
 678.520507812 606.049804688 l 1
EndSplineSet
EndChar

StartChar: uni0668
Encoding: 1640 1640 22
Width: 1000
VWidth: -36
Flags: HW
LayerCount: 2
Back
SplineSet
306 7 m 1
 458 588 l 0
 465 606 498 606 508 588 c 0
 694 7 l 1
EndSplineSet
Fore
Refer: 21 1639 N 1 0 0 -1 -34 594.182 2
EndChar

StartChar: uni0669
Encoding: 1641 1641 23
Width: 1000
VWidth: 0
Flags: HW
LayerCount: 2
Back
SplineSet
640 319.861328125 m 1
 624 318.86088891 l 5
 560.23389626 317.007838353 428.316212985 297.98966871 368.844924934 383.892640339 c 0
 368.721568423 384.070821966 368.49543919 384.414411849 368.343108312 384.663975203 c 0
 316.800522043 469.106084623 354.256367883 562.960003202 416.622571782 597.661147882 c 1
 472.108487957 635.254584867 582.639045101 632.467425989 632.561529596 558.068993506 c 0
 647.310466911 536.088961299 656 508.223396158 656 475 c 0
 656 0 l 1
 624 0 l 1
 624 475 l 2
 624 503.333865927 616.660422204 524.842362874 605.203262004 541.392002812 c 0
 567.101924658 596.428626478 475.799611456 599.963157763 434.161418198 570.882514852 c 0
 433.672443186 570.541008495 432.964872764 570.116136356 432.570026207 569.904089131 c 0
 386.234153424 545.020009303 354.270107471 470.151805739 395.414192949 401.733408489 c 1
 441.417617155 336.496534466 552.826236916 348.898574313 624 350.873660434 c 5
 640 351.874023438 l 1
 640 319.861328125 l 1
640 -36 m 1
 640 439 l 2
 640 573 488 592 425 548 c 0
 371 519 335 434 382 357 c 0
 436 279 564 298 630 299 c 9
EndSplineSet
Fore
SplineSet
640 319.861328125 m 1
 568.323558653 315.379582956 430.597905115 294.693891188 368.844924934 383.892640339 c 0
 368.721568423 384.070821966 368.49543919 384.414411849 368.343108312 384.663975203 c 0
 316.800522043 469.106084623 354.256367883 562.960003202 416.622571782 597.661147882 c 0
 472.108487957 635.254584867 582.639045101 632.467425989 632.561529596 558.068993506 c 0
 647.310466911 536.088961299 656 508.223396158 656 475 c 2
 656 0 l 1
 624 0 l 1
 624 475 l 2
 624 503.333865927 616.660422204 524.842362874 605.203262004 541.392002812 c 0
 567.101924658 596.428626478 475.799611456 599.963157763 434.161418198 570.882514852 c 0
 433.672443186 570.541008495 432.964872764 570.116136356 432.570026207 569.904089131 c 0
 386.234153424 545.020009303 354.270107471 470.151805739 395.414192949 401.733408489 c 0
 443.141037247 334.05257423 563.41177044 347.085521477 640 351.874023438 c 1
 640 319.861328125 l 1
EndSplineSet
EndChar

StartChar: uni06BA
Encoding: 1722 1722 24
Width: 1000
VWidth: -36
Flags: HW
LayerCount: 2
Back
SplineSet
682 152 m 1
 682 -119 l 2
 682 -145 660 -171 631 -171 c 2
 492 -171 l 2
 411 -171 318 -109 318 -39 c 2
 318 151 l 1
EndSplineSet
Fore
SplineSet
666 152 m 1
 698 152 l 1
 698 -119 l 2
 698 -153.184570312 669.87109375 -187 631 -187 c 2
 492 -187 l 2
 386.01953125 -187 302 -132.765625 302 -39 c 2
 302 151 l 1
 334 151 l 1
 334 -39 l 2
 334 -105.234375 395.98046875 -155 492 -155 c 2
 631 -155 l 2
 650.12890625 -155 666 -136.815429688 666 -119 c 2
 666 152 l 1
EndSplineSet
EndChar

StartChar: uni06A1
Encoding: 1697 1697 25
Width: 1000
VWidth: -36
Flags: HW
LayerCount: 2
Back
SplineSet
696 1 m 1
 672 1 l 0
 575.08203125 1 492.977539062 -14.6875 440.295898438 72.7421875 c 0
 394.826171875 147.766601562 434.116210938 239.389648438 489.318359375 275.440429688 c 1
 551.604492188 315.233398438 659.670898438 308.62890625 706.67578125 234.193359375 c 0
 720.174804688 212.817382812 728 186.211914062 728 155 c 0
 728 -129 l 0
 728 -163.966796875 700.494140625 -199 657 -199 c 0
 165 -199 l 0
 100.721679688 -199 50 -156.375 50 -89 c 0
 50 63 l 1
 82 63 l 1
 82 -89 l 0
 82 -137.625 115.278320312 -167 165 -167 c 0
 657 -167 l 0
 681.505859375 -167 696 -148.033203125 696 -129 c 0
 696 1 l 1
696 33 m 1
 696 155 l 0
 696 180.90625 689.686523438 201.1640625 679.619140625 217.107421875 c 0
 644.567382812 272.614257812 556.266601562 280.239257812 506.681640625 248.559570312 c 1
 463.883789062 220.610351562 433.182617188 146.219726562 467.693359375 89.275390625 c 1
 509.032226562 20.6708984375 566.915039062 33 672 33 c 0
 696 33 l 1
66 63 m 1
 66 -89 l 2
 66 -147 108 -183 165 -183 c 2
 657 -183 l 2
 691 -183 712 -156 712 -129 c 2
 712 155 l 2
 712 283 570 308 498 262 c 0
 449 230 414 147 454 81 c 0
 501 3 571 17 672 17 c 10
 703 17 l 29
EndSplineSet
Fore
SplineSet
696 155 m 0
 696 180.90625 689.686523438 201.1640625 679.619140625 217.107421875 c 0
 644.567382812 272.614257812 556.266601562 280.239257812 506.681640625 248.559570312 c 0
 463.883789062 220.610351562 433.182617188 146.219726562 467.693359375 89.275390625 c 0
 511.46498451 16.6335811396 595 26.390625 710 38 c 1
 710 6 l 1
 616.543945312 -5.5341796875 496.859623364 -21.1301508603 440.295898438 72.7421875 c 0
 394.826171875 147.766601562 434.116210938 239.389648438 489.318359375 275.440429688 c 0
 551.604492188 315.233398438 659.670898438 308.62890625 706.67578125 234.193359375 c 0
 720.174804688 212.817382812 728 186.211914062 728 155 c 2
 728 -129 l 2
 728 -163.966796875 700.494140625 -199 657 -199 c 2
 165 -199 l 2
 100.721679688 -199 50 -156.375 50 -89 c 2
 50 63 l 1
 82 63 l 1
 82 -89 l 2
 82 -137.625 115.278320312 -167 165 -167 c 2
 657 -167 l 2
 681.505859375 -167 696 -148.033203125 696 -129 c 2
 696 -129 696 60.3333333333 696 155 c 0
EndSplineSet
EndChar

StartChar: uni06D2
Encoding: 1746 1746 26
Width: 1000
VWidth: -36
Flags: HW
LayerCount: 2
Back
SplineSet
897 -181 m 1
 271 -181 l 2
 55 -181 68 14 194 47 c 0
 304 76 292 123 316 157 c 0
 389 261 500 218 554 184 c 9
EndSplineSet
Fore
SplineSet
897 -165 m 1
 897 -197 l 1
 271 -197 l 0
 165.975585938 -197 106.250976562 -151.724609375 90.9755859375 -94.0478515625 c 0
 73.8203125 -29.2705078125 114.770507812 42.7890625 189.920898438 62.4716796875 c 0
 294.823242188 90.126953125 273.134765625 124.01953125 302.916015625 166.209960938 c 0
 383.77734375 281.409179688 507.375976562 232.262695312 562.525390625 197.540039062 c 1
 545.474609375 170.459960938 l 1
 492.624023438 203.736328125 394.211914062 240.576171875 329.095703125 147.807617188 c 0
 310.853515625 121.963867188 313.18359375 61.8740234375 198.079101562 31.5283203125 c 0
 138.772460938 15.99609375 109.60546875 -39.396484375 121.909179688 -85.85546875 c 0
 132.388671875 -125.423828125 174.521484375 -165 271 -165 c 0
 897 -165 l 1
EndSplineSet
EndChar

StartChar: uni0664.alt
Encoding: 65536 -1 28
Width: 1000
VWidth: -36
Flags: HW
LayerCount: 2
Back
SplineSet
534.553710938 591.9140625 m 1
 553.446289062 566.0859375 l 1
 378.388671875 438.043945312 l 1
 374.985351562 435.600585938 372.3359375 433.44921875 370.03515625 431.337890625 c 0
 353.1875 415.872070312 356.59765625 407.963867188 382.248046875 380.397460938 c 1
 514.767578125 259.834960938 l 0
 521.513671875 253.697265625 521.149414062 243.13671875 515.892578125 237.296875 c 0
 371.715820312 77.1005859375 l 1
 347.775390625 52.201171875 348.275390625 40.3583984375 356.358398438 33 c 1
 665 33 l 1
 665 1 l 1
 351 1 l 0
 348.446289062 1 344.76171875 1.9287109375 342.125 3.6875 c 0
 311.103515625 24.3681640625 316.577148438 56.1728515625 332.361328125 79.5087890625 c 0
 336.83984375 86.1298828125 342.626953125 93.015625 348.284179688 98.8994140625 c 1
 481.4609375 246.874023438 l 1
 360.232421875 357.165039062 l 0
 360.006835938 357.370117188 359.595703125 357.770507812 359.315429688 358.069335938 c 0
 333.295898438 385.883789062 311.63671875 421.168945312 348.395507812 454.912109375 c 0
 351.732421875 457.974609375 355.5859375 461.06640625 359.611328125 463.956054688 c 1
 534.553710938 591.9140625 l 1
544 579 m 1
 369 451 l 2
 330 423 342 400 371 369 c 1
 504 248 l 1
 360 88 l 2
 335 62 324 35 351 17 c 1
 665 17 l 1
EndSplineSet
Fore
SplineSet
534.553710938 591.9140625 m 1
 553.446289062 566.0859375 l 1
 378.388671875 438.043945312 l 2
 356.22975739 421.836301218 349.431081114 410.253869464 382.248046875 380.397460938 c 2
 514.767578125 259.834960938 l 2
 521.513671875 253.697265625 521.149414062 243.13671875 515.892578125 237.296875 c 2
 371.715820312 77.1005859375 l 2
 347.775390625 52.201171875 344.666992188 33 365.358398438 33 c 2
 665 33 l 1
 665 1 l 1
 357 1 l 2
 334.268554688 1 323.936603577 21.4805520365 321.417542964 30 c 0
 313.528837116 56.67955611 333.355621837 83.3729923383 348.284179688 98.8994140625 c 2
 481.4609375 246.874023438 l 1
 360.232421875 357.165039062 l 2
 331.921999919 382.901786295 306.75518496 425.824315251 355 461 c 2
 355 461 472.919045392 546.10860228 534.553710938 591.9140625 c 1
EndSplineSet
EndChar

StartChar: uni0647.medi
Encoding: 65537 -1 29
Width: 1000
VWidth: -36
Flags: HW
LayerCount: 2
Back
SplineSet
540 -285 m 1
 540 -35 l 2
 540 -7 564 17 592 17 c 2
 732 17 l 1
509 -298 m 0
 489 -194 449 -186 413 -128 c 0
 379 -73 396 15 346 17 c 1
 206 17 l 1
EndSplineSet
Fore
SplineSet
556 -285 m 1
 524 -285 l 1
 524 -35 l 0
 524 1.9912109375 555.008789062 33 592 33 c 0
 732 33 l 1
 732 1 l 1
 592 1 l 0
 572.991210938 1 556 -15.9912109375 556 -35 c 0
 556 -285 l 1
524.711914062 -294.978515625 m 1
 493.288085938 -301.021484375 l 1
 474.09375 -201.211914062 439.159179688 -200.484375 399.390625 -136.413085938 c 0
 355.208984375 -64.943359375 378.037109375 1 345.659179688 1 c 2
 206 1 l 1
 206 33 l 1
 346.3203125 33 l 2
 414.103515625 33 402.571289062 -80.701171875 426.609375 -119.586914062 c 0
 458.840820312 -171.515625 503.90625 -186.788085938 524.711914062 -294.978515625 c 1
EndSplineSet
EndChar

StartChar: u0644_u0627.isol
Encoding: 65538 -1 30
Width: 1000
VWidth: -36
Flags: HW
LayerCount: 2
Back
SplineSet
438 644 m 1
 569 195 l 1
643 624 m 1
 643 71 l 2
 643 39 620 17 592 17 c 2
 357 17 l 1
505 227 m 1
 507 125 453 87 385 54 c 1
 468 54 l 1
 559 105 597 164 608 227 c 9
 505 227 l 1
EndSplineSet
Fore
SplineSet
552 199 m 1
 584 199 l 17
 573 136 537 77 446 26 c 1
 424 26 l 1
 449 40 554 97 552 199 c 1
423 640 m 1
 453 648 l 1
 584 199 l 1
 554 191 l 1
 423 640 l 1
607 624 m 1
 639 624 l 1
 639 71 l 0
 639 31 609 1 572 1 c 0
 357 1 l 1
 357 33 l 1
 572 33 l 0
 591 33 607 47 607 71 c 0
 607 624 l 1
EndSplineSet
EndChar

StartChar: u0644_u0627.isol.alt1
Encoding: 65539 -1 31
Width: 1000
VWidth: -36
Flags: HW
LayerCount: 2
Back
SplineSet
620 623 m 1
 620 73 l 2
 620 41 598 17 570 17 c 2
 420 17 l 1
438 622 m 1
 438 121 l 1
EndSplineSet
Fore
SplineSet
604 623 m 1
 636 623 l 1
 636 73 l 0
 636 33.7568359375 608.112304688 1 570 1 c 0
 420 1 l 1
 420 33 l 1
 570 33 l 0
 587.887695312 33 604 48.2431640625 604 73 c 0
 604 623 l 1
422 622 m 1
 454 622 l 1
 454 121 l 1
 422 121 l 1
 422 622 l 1
EndSplineSet
EndChar

StartChar: u0644_u0627.isol.alt2
Encoding: 65540 -1 32
Width: 1000
VWidth: -36
Flags: HW
LayerCount: 2
Back
SplineSet
665 624 m 1
 665 71 l 2
 665 39 643 17 615 17 c 2
 335 17 l 1
483 528 m 1
 483 23 l 1
EndSplineSet
Fore
SplineSet
649 624 m 1
 681 624 l 1
 681 71 l 0
 681 31.19140625 652.30859375 1 615 1 c 0
 335 1 l 1
 335 33 l 1
 615 33 l 0
 633.69140625 33 649 46.80859375 649 71 c 0
 649 624 l 1
467 528 m 1
 499 528 l 1
 499 23 l 1
 467 23 l 1
 467 528 l 1
EndSplineSet
EndChar

StartChar: uni0648.fina
Encoding: 65541 -1 33
Width: 1000
VWidth: -36
Flags: HW
LayerCount: 2
Back
SplineSet
730 16 m 1
 441 16 l 1
 380 17 334 67 337 119 c 1
 353 299 600 351 601 197 c 2
 601 -37 l 2
 601 -111 546 -183 463 -183 c 2
 270 -183 l 1
EndSplineSet
Fore
SplineSet
585 196.948242188 m 2
 584.65234375 250.416015625 552.514648438 272.252929688 509.619140625 271.920898438 c 0
 445.213867188 271.421875 362.127929688 216.110351562 352.958007812 117.827148438 c 0
 350.967773438 76.0947265625 388.517578125 32 441 32 c 2
 730 32 l 1
 730 0 l 1
 441 0 l 2
 371.155273438 0 317.448242188 57.9013671875 321.041015625 120.168945312 c 0
 331.3515625 236.166015625 429.032226562 303.296875 509.37109375 303.919921875 c 0
 566.14453125 304.359375 616.532226562 269.102539062 617 197.051757812 c 2
 617 -37 l 2
 617 -118.215820312 556.362304688 -199 463 -199 c 2
 270 -199 l 1
 270 -167 l 1
 463 -167 l 2
 535.637695312 -167 585 -103.784179688 585 -37 c 2
 585 196.948242188 l 2
EndSplineSet
EndChar

StartChar: uni0631.fina
Encoding: 65542 -1 34
Width: 1000
VWidth: -36
Flags: HW
LayerCount: 2
Back
SplineSet
543 151 m 1
 543 -37 l 2
 543 -119 525 -184 444 -184 c 2
 372 -184 l 1
698 17 m 1
 551 17 l 1
EndSplineSet
Fore
SplineSet
527 151 m 1
 559 151 l 1
 559 -37 l 0
 559 -119.111328125 539.268554688 -200 444 -200 c 0
 372 -200 l 1
 372 -168 l 1
 444 -168 l 0
 510.731445312 -168 527 -118.888671875 527 -37 c 0
 527 151 l 1
698 33 m 1
 698 1 l 1
 551 1 l 1
 551 33 l 1
 698 33 l 1
EndSplineSet
EndChar

StartChar: uni0644.int
Encoding: 65543 -1 35
Width: 1000
VWidth: -36
Flags: HW
LayerCount: 2
Back
SplineSet
570 623 m 1
 570 71 l 2
 570 44 551 17 517 17 c 2
 430 17 l 1
EndSplineSet
Fore
SplineSet
554 623 m 1
 586 623 l 1
 586 71 l 0
 586 36.892578125 561.059570312 1 517 1 c 0
 430 1 l 1
 430 33 l 1
 517 33 l 0
 540.940429688 33 554 51.107421875 554 71 c 0
 554 623 l 1
EndSplineSet
EndChar

StartChar: uni0633.init
Encoding: 65544 -1 36
Width: 1000
VWidth: -36
Flags: HW
LayerCount: 2
Back
SplineSet
780 341 m 1
 780 69 l 2
 780 40 758 17 727 17 c 2
 611 17 l 1
606 341 m 1
 606 68 l 2
 606 39 584 17 553 17 c 2
 441 17 l 1
433 341 m 1
 433 69 l 2
 433 40 411 17 380 17 c 2
 201 17 l 1
EndSplineSet
Fore
SplineSet
764 341 m 1
 796 341 l 1
 796 69 l 0
 796 31.3623046875 766.595703125 1 727 1 c 0
 611 1 l 1
 611 33 l 1
 727 33 l 0
 749.404296875 33 764 48.6376953125 764 69 c 0
 764 341 l 1
590 341 m 1
 622 341 l 1
 622 68 l 0
 622 30.0703125 592.180664062 1 553 1 c 0
 441 1 l 1
 441 33 l 1
 553 33 l 0
 575.819335938 33 590 47.9296875 590 68 c 0
 590 341 l 1
417 341 m 1
 449 341 l 1
 449 69 l 0
 449 31.3623046875 419.595703125 1 380 1 c 0
 201 1 l 1
 201 33 l 1
 380 33 l 0
 402.404296875 33 417 48.6376953125 417 69 c 0
 417 341 l 1
EndSplineSet
EndChar

StartChar: uni066E.init
Encoding: 65545 -1 37
Width: 1000
VWidth: -36
Flags: HW
LayerCount: 2
Back
SplineSet
671 341 m 1
 671 68 l 2
 671 39 649 17 618 17 c 2
 329 17 l 1
EndSplineSet
Fore
SplineSet
655 341 m 1
 687 341 l 1
 687 68 l 0
 687 30.0703125 657.180664062 1 618 1 c 0
 329 1 l 1
 329 33 l 1
 618 33 l 0
 640.819335938 33 655 47.9296875 655 68 c 0
 655 341 l 1
EndSplineSet
EndChar

StartChar: uni06BA.fina
Encoding: 65546 -1 38
Width: 1000
VWidth: -36
Flags: HW
LayerCount: 2
Back
SplineSet
759 17 m 1
 617 17 l 1
605 152 m 1
 605 -119 l 2
 605 -145 583 -171 554 -171 c 2
 415 -171 l 2
 334 -171 241 -109 241 -39 c 2
 241 151 l 1
EndSplineSet
Fore
SplineSet
759 33 m 1
 759 1 l 1
 617 1 l 1
 617 33 l 1
 759 33 l 1
EndSplineSet
Refer: 24 1722 N 1 0 0 1 -77 0 2
EndChar

StartChar: uni0649.fina.alt1
Encoding: 65547 -1 39
Width: 1000
VWidth: -36
Flags: HW
LayerCount: 2
Back
SplineSet
759 17 m 1
 506 17 l 1
603 22 m 1
 603 -121 l 2
 603 -142 587 -171 556 -171 c 2
 419 -171 l 2
 337 -171 241 -115 241 -32 c 2
 241 150 l 1
EndSplineSet
Fore
SplineSet
759 33 m 1
 759 1 l 1
 506 1 l 1
 506 33 l 1
 759 33 l 1
587 22 m 1
 619 22 l 1
 619 -121 l 2
 619 -147.994140625 598.705078125 -187 556 -187 c 2
 419 -187 l 2
 332.506835938 -187 225 -128.5078125 225 -32 c 2
 225 150 l 1
 257 150 l 1
 257 -32 l 2
 257 -101.4921875 341.493164062 -155 419 -155 c 2
 556 -155 l 2
 575.294921875 -155 587 -136.005859375 587 -121 c 2
 587 22 l 1
EndSplineSet
EndChar

StartChar: uni0649.fina.alt2
Encoding: 65548 -1 40
Width: 1000
VWidth: -36
Flags: HW
LayerCount: 2
Back
SplineSet
856 33 m 1
 856 1 l 1
 745 1 l 0
 710.616210938 1 682.67578125 26.712890625 681.9921875 61.77734375 c 1
 678.018554688 144.239257812 l 0
 677.447265625 156.233398438 674.46484375 166.467773438 669.826171875 174.845703125 c 0
 654.67578125 202.208984375 618.08203125 215.452148438 570.7578125 189.006835938 c 1
 531.458984375 167.391601562 493.827148438 142.240234375 460.1484375 109.5234375 c 0
 459.889648438 109.271484375 459.51171875 108.934570312 459.306640625 108.76171875 c 0
 448.493164062 99.6552734375 446.8046875 74.4677734375 460.734375 61.8642578125 c 4
 575.663085938 -69.0322265625 l 1
 613.034108811 -107.913012013 572.982691371 -162 525 -162 c 2
 259.116210938 -162 l 2
 179.924804688 -163.147460938 128 -96.9453125 128 -22 c 2
 128 181 l 1
 160 181 l 1
 160 -22 l 2
 160 -83.0546875 200.075195312 -130.852539062 258.883789062 -130 c 2
 525 -130 l 2
 551.555548502 -130 565.987963776 -106.63113164 551.970703125 -90.548828125 c 2
 438.536132812 38.8046875 l 5
 412.624023438 63.255859375 410.71875 108.556640625 438.26953125 132.881835938 c 1
 473.759765625 167.188476562 514.796875 194.748046875 555.2421875 216.993164062 c 1
 613.228515625 249.397460938 672.350585938 236.34765625 697.821289062 190.346679688 c 0
 705.021484375 177.34375 709.19921875 162.200195312 709.981445312 145.760742188 c 0
 713.981445312 62.7705078125 l 0
 713.990234375 62.5888671875 714 62.2451171875 714 62 c 0
 714 45.48046875 726.880859375 33 745 33 c 0
 856 33 l 1
856 17 m 1
 745 17 l 2
 719 17 698 36 698 62 c 2
 694 145 l 2
 691 208 631 241 563 203 c 0
 523 181 484 155 449 121 c 0
 430 105 429 69 450 50 c 0
 564 -80 l 1
 591 -107 561 -146 525 -146 c 2
 259 -146 l 2
 190 -147 144 -90 144 -22 c 2
 144 181 l 1
EndSplineSet
Fore
SplineSet
856 33 m 1
 856 1 l 1
 745 1 l 2
 710.616210938 1 682.67578125 26.712890625 681.9921875 61.77734375 c 2
 678.018554688 144.239257812 l 2
 675.559267555 195.871675867 629.634089513 221.907570183 570.7578125 189.006835938 c 0
 530.196036958 166.696952238 486 136 459.306640625 108.76171875 c 0
 449.41168443 98.6647655711 448.33984375 75.98046875 460.734375 61.8642578125 c 2
 575.663085938 -69.0322265625 l 2
 611.244140625 -109.557617188 572.982691371 -162 525 -162 c 2
 259.116210938 -162 l 2
 179.924804688 -163.147460938 128 -96.9453125 128 -22 c 2
 128 181 l 1
 160 181 l 1
 160 -22 l 2
 160 -83.0546875 200.075195312 -130.852539062 258.883789062 -130 c 2
 525 -130 l 2
 551.555548502 -130 565.987963776 -106.63113164 551.970703125 -90.548828125 c 2
 438.536132812 38.8046875 l 2
 415.045898438 65.5908203125 410.71875 108.556640625 438.26953125 132.881835938 c 0
 473.759765625 167.188476562 514.796875 194.748046875 555.2421875 216.993164062 c 0
 629.535566121 258.510272914 706.251427402 224.151655437 709.981445312 145.760742188 c 2
 713.981445312 62.7705078125 l 2
 713.990234375 62.5888671875 714 62.2451171875 714 62 c 2
 714 45.48046875 726.880859375 33 745 33 c 2
 856 33 l 1
EndSplineSet
EndChar

StartChar: uni0639.init
Encoding: 65549 -1 41
Width: 1000
VWidth: -36
Flags: HW
LayerCount: 2
Back
SplineSet
266 17 m 1
 734 17 l 1
684 271 m 0
 401 356 309 220 507 28 c 0
EndSplineSet
Fore
SplineSet
266 1 m 1
 266 33 l 1
 734 33 l 1
 734 1 l 1
 266 1 l 1
688.602539062 286.323242188 m 1
 679.397460938 255.676757812 l 1
 548.165039062 295.092773438 465.094726562 283.15625 434.004882812 251.110351562 c 0
 401.119140625 217.213867188 412.450195312 141.971679688 518.138671875 39.486328125 c 1
 495.861328125 16.513671875 l 1
 390.551757812 118.631835938 355.547851562 216.197265625 411.037109375 273.392578125 c 0
 457.434570312 321.215820312 555.413085938 326.328125 688.602539062 286.323242188 c 1
EndSplineSet
EndChar

StartChar: uni0647.init.alt1
Encoding: 65550 -1 42
Width: 1000
VWidth: -36
Flags: HW
LayerCount: 2
Back
SplineSet
441 351 m 0
 700 347 812 221 808 69 c 0
 808 39 785 17 756 17 c 2
 192 17 l 1
364 27 m 1
 364 164 l 1
 375 272 504 293 582 174 c 0
 644 78 580 18 514 17 c 0
EndSplineSet
Fore
SplineSet
440.752929688 335.001953125 m 1
 441.247070312 366.998046875 l 1
 705.637695312 362.915039062 828.271484375 231.116210938 824 68.7890625 c 1
 824 30.34765625 793.497070312 1 756 1 c 0
 192 1 l 1
 192 33 l 1
 756 33 l 0
 776.502929688 33 792 47.65234375 792 69.2109375 c 1
 795.728515625 210.883789062 694.362304688 331.084960938 440.752929688 335.001953125 c 1
380 27 m 1
 348 27 l 1
 348 164 l 0
 348 164.517578125 348.04296875 165.236328125 348.08203125 165.62109375 c 0
 352.045898438 204.538085938 370.208984375 235.120117188 397.030273438 252.955078125 c 0
 453.934570312 290.79296875 539.54296875 267.959960938 595.411132812 182.725585938 c 1
 613.889648438 154.115234375 622.640625 127.487304688 623.154296875 103.1640625 c 0
 624.526367188 38.1962890625 567.78515625 1.8134765625 514.2421875 1.001953125 c 1
 513.7578125 32.998046875 l 1
 555.548828125 33.6318359375 592.053710938 60.2421875 591.161132812 102.48828125 c 0
 590.803710938 119.401367188 584.5546875 140.551757812 568.588867188 165.274414062 c 1
 518.83984375 241.173828125 452.077148438 251.129882812 414.749023438 226.30859375 c 0
 396.762695312 214.34765625 383.53125 194.387695312 380 163.174804688 c 1
 380 27 l 1
EndSplineSet
EndChar

StartChar: uni0647.init.alt2
Encoding: 65551 -1 43
Width: 1000
VWidth: -36
Flags: HW
LayerCount: 2
Back
SplineSet
458 361 m 0
 705 361 803 240 801 69 c 0
 801 39 778 17 749 17 c 2
 199 17 l 1
350 150 m 0
 350 82 405 27 473 27 c 0
 541 27 595 82 595 150 c 0
 595 218 541 272 473 272 c 0
 405 272 350 218 350 150 c 0
EndSplineSet
Fore
SplineSet
458 345 m 1
 458 377 l 1
 711.752929688 377 819.100585938 248.467773438 817 68.90625 c 1
 817 30.25 786.497070312 1 749 1 c 0
 199 1 l 1
 199 33 l 1
 749 33 l 0
 769.502929688 33 785 47.75 785 69.09375 c 1
 786.899414062 231.532226562 698.247070312 345 458 345 c 1
334 150 m 0
 334 226.952148438 396.34765625 288 473 288 c 0
 549.776367188 288 611 226.776367188 611 150 c 0
 611 73.34765625 549.952148438 11 473 11 c 0
 396.171875 11 334 73.171875 334 150 c 0
366 150 m 0
 366 90.828125 413.828125 43 473 43 c 0
 532.047851562 43 579 90.65234375 579 150 c 0
 579 209.223632812 532.223632812 256 473 256 c 0
 413.65234375 256 366 209.047851562 366 150 c 0
EndSplineSet
EndChar

StartChar: uni0647.init
Encoding: 65552 -1 44
Width: 1000
VWidth: -36
Flags: HW
LayerCount: 2
Back
SplineSet
441 412 m 0
 700 408 812 221 808 69 c 0
 808 39 785 17 756 17 c 2
 192 17 l 1
364 27 m 1
 364 164 l 2
 364 272.55859375 504 293 582 174 c 0
 644 78 580 18 514 17 c 0
EndSplineSet
Fore
SplineSet
440.752929688 396.001953125 m 1
 441.247070312 427.998046875 l 1
 709.451171875 423.85546875 828.19921875 228.36328125 824 68.7890625 c 0
 824 30.34765625 793.497070312 1 756 1 c 2
 192 1 l 1
 192 33 l 1
 756 33 l 2
 776.502929688 33 792 47.65234375 792 69.2109375 c 0
 795.80078125 213.63671875 690.548828125 392.14453125 440.752929688 396.001953125 c 1
380 27 m 1
 348 27 l 1
 348 164 l 0
 348 203.790039062 365.146484375 235.303710938 392.366210938 253.350585938 c 0
 449.1328125 290.986328125 539.422851562 268.14453125 595.411132812 182.725585938 c 0
 613.889648438 154.115234375 622.640625 127.487304688 623.154296875 103.1640625 c 0
 624.526367188 38.1962890625 567.78515625 1.8134765625 514.2421875 1.001953125 c 1
 513.7578125 32.998046875 l 1
 555.548828125 33.6318359375 592.053710938 60.2421875 591.161132812 102.48828125 c 0
 590.803710938 119.401367188 584.5546875 140.551757812 568.588867188 165.274414062 c 0
 519.112304688 240.756835938 447.263671875 251.352539062 410.048828125 226.6796875 c 0
 392.236328125 214.870117188 380 194.543945312 380 164 c 0
 380 27 l 1
EndSplineSet
EndChar

StartChar: uni0647.init.alt3
Encoding: 65553 -1 45
Width: 1000
VWidth: -36
Flags: HW
LayerCount: 2
Back
SplineSet
441 446 m 0
 646 417 813 255 813 69 c 0
 813 39 790 17 761 17 c 2
 187 17 l 1
338 150 m 0
 338 82 393 27 461 27 c 0
 529 27 584 82 584 150 c 0
 584 218 529 272 461 272 c 0
 393 272 338 218 338 150 c 0
EndSplineSet
Fore
SplineSet
438.758789062 430.158203125 m 1
 443.241210938 461.841796875 l 1
 654.428710938 431.966796875 829 264.93359375 829 69 c 0
 829 30.171875 798.497070312 1 761 1 c 0
 187 1 l 1
 187 33 l 1
 761 33 l 0
 781.502929688 33 797 47.828125 797 69 c 0
 797 245.06640625 637.571289062 402.033203125 438.758789062 430.158203125 c 1
322 150 m 0
 322 226.952148438 384.34765625 288 461 288 c 0
 537.65234375 288 600 226.952148438 600 150 c 0
 600 73.171875 537.828125 11 461 11 c 0
 384.171875 11 322 73.171875 322 150 c 0
354 150 m 0
 354 90.828125 401.828125 43 461 43 c 0
 520.171875 43 568 90.828125 568 150 c 0
 568 209.047851562 520.34765625 256 461 256 c 0
 401.65234375 256 354 209.047851562 354 150 c 0
EndSplineSet
EndChar

StartChar: uni062D.init
Encoding: 65554 -1 46
Width: 1000
VWidth: 0
Flags: HW
LayerCount: 2
Back
SplineSet
245 0 m 1
 245 32 l 1
 728 32 l 0
 730.708007812 32 733.970703125 33.7421875 736.73828125 39.55078125 c 1
 696.040039062 46.4892578125 662.537109375 73.4091796875 633.421875 98.99609375 c 1
 589.09765625 138.166015625 543.484375 191.556640625 493.745117188 226.948242188 c 0
 441.497070312 263.997070312 389.258789062 276.443359375 348.208984375 286.456054688 c 1
 355.791015625 317.543945312 l 1
 396.741210938 307.556640625 454.502929688 294.002929688 512.254882812 253.051757812 c 0
 566.528320312 214.434570312 612.879882812 159.853515625 654.594726562 122.989257812 c 0
 687.39453125 94.166015625 721.37890625 70 755 70 c 4
 769.897460938 70 l 1
 770.958984375 55.1396484375 l 0
 772.65625 31.3818359375 758.870117188 0 728 0 c 0
 245 0 l 1
245 17 m 1
 728 17 l 2
 745.255859375 17 756.360351562 35.9560546875 755 55 c 1
 714 55 677 83 644 112 c 0
 601 150 555 204 503 241 c 0
 448 280 393 293 352 303 c 0
EndSplineSet
Fore
SplineSet
245 0 m 1
 245 32 l 1
 728 32 l 0
 730.708007812 32 733.970703125 33.7421875 736.73828125 39.55078125 c 1
 696.040039062 46.4892578125 662.537109375 73.4091796875 633.421875 98.99609375 c 0
 589.09765625 138.166015625 543.484375 191.556640625 493.745117188 226.948242188 c 0
 441.497070312 263.997070312 389.258789062 276.443359375 348.208984375 286.456054688 c 1
 355.791015625 317.543945312 l 1
 396.741210938 307.556640625 454.502929688 294.002929688 512.254882812 253.051757812 c 0
 566.528320312 214.434570312 612.879882812 159.853515625 654.594726562 122.989257812 c 0
 694.036170424 88.3295914067 721.376657253 70 769.897460938 70 c 1
 770.958984375 55.1396484375 l 0
 772.65625 31.3818359375 758.870117188 0 728 0 c 0
 245 0 l 1
EndSplineSet
EndChar

StartChar: uni0643.init
Encoding: 65555 -1 47
Width: 1000
VWidth: -36
Flags: HW
LayerCount: 2
Back
SplineSet
221 1 m 1
 221 33 l 1
 683 33 l 0
 696.453125 33 703.298828125 36.59375 707.311523438 40.423828125 c 0
 718.866210938 51.4541015625 714.163085938 80.0478515625 706.567382812 87.806640625 c 0
 426.567382812 373.806640625 l 0
 420.169921875 380.340820312 414.874023438 387.25390625 410.669921875 394.373046875 c 0
 390.33203125 428.810546875 395.737304688 470.8203125 426.803710938 488.743164062 c 1
 529.88671875 552.258789062 736.73046875 598.86328125 778.567382812 599.994140625 c 1
 779.432617188 568.005859375 l 1
 747.26953125 567.13671875 538.11328125 519.741210938 443.196289062 461.256835938 c 1
 431.069335938 454.260742188 424.04296875 434.657226562 438.223632812 410.645507812 c 0
 441.057617188 405.846679688 444.751953125 400.974609375 449.432617188 396.193359375 c 0
 729.432617188 110.193359375 l 0
 747.215820312 92.029296875 758.556640625 45.1025390625 729.407226562 17.27734375 c 4
 718.385742188 6.755859375 702.454101562 1 683 1 c 0
 221 1 l 1
221 17 m 1
 683 17 l 2
 744 17 735.376953125 81.2509765625 718 99 c 2
 438 385 l 2
 405.291992188 418.409179688 409 460 435 475 c 0
 534 536 742 583 779 584 c 0
EndSplineSet
Fore
SplineSet
221 1 m 1
 221 33 l 1
 683 33 l 2
 713.488879183 33 725.516520217 68.4506497942 706.567382812 87.806640625 c 2
 426.567382812 373.806640625 l 2
 397.986048637 402.998780294 383.251767288 463.617148037 426.803710938 488.743164062 c 0
 529.88671875 552.258789062 736.73046875 598.86328125 778.567382812 599.994140625 c 1
 779.432617188 568.005859375 l 1
 747.26953125 567.13671875 538.11328125 519.741210938 443.196289062 461.256835938 c 0
 422.581269444 449.363938486 431.763523421 414.242156179 449.432617188 396.193359375 c 2
 729.432617188 110.193359375 l 2
 765.653950192 73.1962811828 743.027595881 1 683 1 c 2
 221 1 l 1
EndSplineSet
EndChar

StartChar: uni0635.init
Encoding: 65556 -1 48
Width: 1000
VWidth: -36
Flags: HW
LayerCount: 2
Back
SplineSet
368 33 m 4
 472 177 572 326 688 283 c 4
 738 262 762 217 764 135 c 6
 767 68 l 6
 768 39 745 16 714 16 c 6
 203 16 l 1
341 241 m 1
 341 32 l 1
EndSplineSet
Fore
SplineSet
203 32 m 1
 714 32 l 2
 736.783203125 32 751.680664062 47.978515625 751.009765625 67.4482421875 c 2
 749.006835938 134.522460938 l 0
 747.08203125 213.456054688 724.893554688 249.84375 682.122070312 268.115234375 c 0
 580.139648438 305.228515625 484.791992188 165.721679688 381 24 c 9
 355.029296875 42.3681640625 l 1
 455.653320312 181.693359375 561.301757812 347.029296875 693.880859375 297.883789062 c 0
 751.912109375 273.510742188 778.924804688 220.283203125 780.994140625 135.43359375 c 0
 782.9921875 68.5146484375 l 2
 784.318359375 30.052734375 753.217773438 0 714 0 c 2
 203 0 l 1
 203 32 l 1
326 241 m 1
 358 241 l 1
 358 22 l 1
 326 22 l 1
 326 241 l 1
EndSplineSet
EndChar

StartChar: uni0643_uni0627.isol
Encoding: 65557 -1 49
Width: 1000
VWidth: -36
Flags: HW
LayerCount: 2
Back
SplineSet
708.75 600.114257812 m 1
 719.25 569.885742188 l 1
 628.866210938 538.489257812 460.7421875 473.311523438 376.555664062 395.68359375 c 1
 681.41015625 80.216796875 l 1
 690.166992188 71.4609375 695.357421875 60.1005859375 695.635742188 48.69921875 c 0
 696.32421875 20.515625 670.322265625 0 640 0 c 0
 335 0 l 2
 295.274414062 0 270 35.1669921875 270 70 c 2
 270 635 l 1
 302 635 l 1
 302 70 l 2
 302 48.8330078125 316.725585938 32 335 32 c 2
 640 32 l 0
 657.71484375 32 663.780273438 42.423828125 663.645507812 47.91796875 c 4
 663.58203125 50.5126953125 662.750976562 53.6220703125 658.58984375 57.783203125 c 1
 342.494140625 384.881835938 l 0
 336.803710938 390.770507812 336.466796875 400.875976562 342.489257812 407.11328125 c 0
 430.725585938 498.500976562 613.250976562 566.940429688 708.75 600.114257812 c 1
714 585 m 0
 619 552 438 483 354 396 c 1
 670 69 l 2
 692 47 674 16 640 16 c 2
 335 16 l 2
 306 16 286 42 286 70 c 2
 286 635 l 1
EndSplineSet
Fore
SplineSet
708.75 600.114257812 m 1
 719.25 569.885742188 l 1
 628.866210938 538.489257812 460.7421875 473.311523438 376.555664062 395.68359375 c 1
 681.41015625 80.216796875 l 2
 714.32548881 47.3051350338 685.242975323 0 640 0 c 2
 335 0 l 2
 295.274414062 0 270 35.1669921875 270 70 c 2
 270 635 l 1
 302 635 l 1
 302 70 l 2
 302 48.8330078125 316.725585938 32 335 32 c 2
 640 32 l 2
 663.545993561 32 668.886584477 47.4864623981 658.58984375 57.783203125 c 2
 342.494140625 384.881835938 l 0
 336.803710938 390.770507812 336.466796875 400.875976562 342.489257812 407.11328125 c 0
 430.725585938 498.500976562 613.250976562 566.940429688 708.75 600.114257812 c 1
EndSplineSet
EndChar

StartChar: uni06D2.fina
Encoding: 65558 -1 50
Width: 1000
VWidth: -36
Flags: HW
LayerCount: 2
Back
SplineSet
803 -243 m 1
 803 -275 l 1
 365 -275 l 0
 260.059570312 -275 200.368164062 -229.619140625 185.000976562 -171.861328125 c 0
 167.69140625 -106.807617188 208.60546875 -34.25390625 283.920898438 -14.5283203125 c 0
 388.689453125 13.091796875 371.484375 44.7275390625 396.196289062 87.0908203125 c 5
 412.09375 114.086914062 432.8984375 133.700195312 455.989257812 145.912109375 c 4
 517.61328125 178.502929688 593.245117188 156.969726562 627.178710938 92.4130859375 c 5
 650.578125 47.416015625 679.309570312 33 729 33 c 4
 803 33 l 1
 803 1 l 1
 729 1 l 4
 670.684570312 1 627.436523438 22.556640625 598.8046875 77.6181640625 c 4
 573.177734375 126.372070312 517.384765625 142.182617188 470.950195312 117.625 c 4
 453.391601562 108.337890625 436.893554688 93.13671875 423.787109375 70.880859375 c 4
 406.53125 41.2998046875 407.301757812 -15.0947265625 292.079101562 -45.4716796875 c 0
 232.741210938 -61.01171875 203.46484375 -116.803710938 215.924804688 -163.633789062 c 0
 226.5 -203.37890625 268.668945312 -243 365 -243 c 0
 803 -243 l 1
803 -259 m 1
 365 -259 l 2
 148.88671875 -259 162 -63 288 -30 c 0
 398 -1 389 43 410 79 c 0
 463 169 572 163 613 85 c 0
 639 35 675 17 729 17 c 2
 803 17 l 1
EndSplineSet
Fore
SplineSet
803 -243 m 1
 803 -275 l 1
 365 -275 l 2
 260.059570312 -275 200.368164062 -229.619140625 185.000976562 -171.861328125 c 0
 167.69140625 -106.807617188 208.60546875 -34.25390625 283.920898438 -14.5283203125 c 0
 388.689453125 13.091796875 371.484375 44.7275390625 396.196289062 87.0908203125 c 0
 420.598135124 128.528539616 461.348444047 162.835787171 520.029663086 160.879191143 c 0
 563.280804515 159.437077074 604.523190076 135.513864747 627.178710938 92.4130859375 c 0
 650.578125 47.416015625 679.309570312 33 729 33 c 2
 803 33 l 1
 803 1 l 1
 729 1 l 2
 670.684570312 1 627.436523438 22.556640625 598.8046875 77.6181640625 c 0
 581.895181421 109.787594041 551.852012989 127.614163359 520.029663086 128.964891557 c 0
 474.328400571 130.904722655 443.336941581 104.078137966 423.787109375 70.880859375 c 0
 406.53125 41.2998046875 407.301757812 -15.0947265625 292.079101562 -45.4716796875 c 0
 232.741210938 -61.01171875 203.46484375 -116.803710938 215.924804688 -163.633789062 c 0
 226.5 -203.37890625 268.668945312 -243 365 -243 c 2
 803 -243 l 1
EndSplineSet
EndChar

StartChar: braceleft
Encoding: 123 123 51
Width: 1000
VWidth: -36
Flags: HW
LayerCount: 2
Back
SplineSet
641 681 m 17
 565 683 500 645 500 574 c 2
 500 322 l 2
 500 250 447 204 359 204 c 1
 446 204 500 163 500 87 c 2
 500 -151 l 2
 500 -239 565 -274 641 -274 c 9
EndSplineSet
Fore
SplineSet
442.305664062 204.491210938 m 1
 489.999023438 183.250976562 516 142.53125 516 87 c 0
 516 -151 l 0
 516 -227.770507812 569.573242188 -258 641 -258 c 1
 641 -290 l 1
 560.426757812 -290 484 -250.229492188 484 -151 c 0
 484 87 l 0
 484 142.069335938 454.072265625 174.231445312 397.962890625 184.655273438 c 0
 386.138671875 186.852539062 373.111328125 188 359 188 c 0
 360 188 358 220 359 220 c 0
 373.247070312 220 386.34765625 221.2890625 398.215820312 223.69921875 c 0
 454.348632812 235.09765625 484 270.184570312 484 322 c 0
 484 574 l 0
 484 657.66796875 561.163085938 699.106445312 641.420898438 696.994140625 c 1
 640.579101562 665.005859375 l 1
 568.836914062 666.893554688 516 632.33203125 516 574 c 0
 516 322 l 0
 516 268.948242188 488.788085938 226.303710938 442.305664062 204.491210938 c 1
EndSplineSet
EndChar

StartChar: parenleft
Encoding: 40 40 52
Width: 1000
VWidth: -36
Flags: HW
LayerCount: 2
Back
SplineSet
578 733 m 0
 370 389 363 42 580 -325 c 0
EndSplineSet
Fore
SplineSet
564.30859375 741.278320312 m 1
 591.69140625 724.721679688 l 1
 386.436523438 385.260742188 379.44140625 45.630859375 593.772460938 -316.856445312 c 1
 566.227539062 -333.143554688 l 1
 346.55859375 38.369140625 353.563476562 392.739257812 564.30859375 741.278320312 c 1
EndSplineSet
EndChar

StartChar: bracketleft
Encoding: 91 91 53
Width: 1000
VWidth: -36
Flags: HW
LayerCount: 2
Back
SplineSet
570 680 m 1
 429 680 l 1
 429 -272 l 1
 571 -272 l 1
EndSplineSet
Fore
SplineSet
570 696 m 1
 570 664 l 1
 445 664 l 1
 445 -256 l 1
 571 -256 l 1
 571 -288 l 1
 429 -288 l 2
 422.1328125 -288 413 -281.684570312 413 -272 c 2
 413 680 l 2
 413 686.8671875 419.315429688 696 429 696 c 2
 570 696 l 1
EndSplineSet
EndChar

StartChar: uni064B
Encoding: 1611 1611 54
Width: 0
VWidth: -36
Flags: HW
LayerCount: 2
Back
SplineSet
194 143 m 1
 -194 143 l 1
194 -7 m 1
 -194 -8 l 1
EndSplineSet
Fore
SplineSet
194 153 m 1
 194 133 l 1
 -194 133 l 1
 -194 153 l 1
 194 153 l 1
193.974609375 3 m 1
 194.025390625 -17 l 1
 -193.974609375 -18 l 1
 -194.025390625 2 l 1
 193.974609375 3 l 1
EndSplineSet
EndChar

StartChar: uni064E
Encoding: 1614 1614 55
Width: 0
VWidth: -36
Flags: HW
LayerCount: 2
Back
SplineSet
137 206 m 1
 -137 -70 l 1
EndSplineSet
Fore
SplineSet
129.903320312 213.044921875 m 1
 144.096679688 198.955078125 l 1
 -129.903320312 -77.044921875 l 1
 -144.096679688 -62.955078125 l 1
 129.903320312 213.044921875 l 1
EndSplineSet
EndChar

StartChar: uni064F
Encoding: 1615 1615 56
Width: 0
VWidth: -36
Flags: HW
LayerCount: 2
Back
SplineSet
-51 170 m 0
 -14 213 55 214 94 178 c 0
 133 142 134 79 96 38 c 0
 58 -2 -2 -5 -44 28 c 0
 -86 61 -88 127 -51 170 c 0
-124 -200 m 1
 90 32 l 1
EndSplineSet
Fore
SplineSet
-43.419921875 163.477539062 m 0
 -77.2744140625 124.1328125 -74.568359375 64.7353515625 -37.822265625 35.86328125 c 0
 0.2421875 5.9560546875 54.3935546875 8.72265625 88.7080078125 44.8427734375 c 1
 123.146484375 82 121.838867188 138.693359375 87.216796875 170.65234375 c 0
 52.306640625 202.876953125 -10.3662109375 201.891601562 -43.419921875 163.477539062 c 0
-58.580078125 176.522460938 m 0
 -17.6337890625 224.108398438 57.693359375 225.123046875 100.783203125 185.34765625 c 0
 144.161132812 145.306640625 144.853515625 76 103.291992188 31.1572265625 c 1
 61.6064453125 -12.72265625 -4.2421875 -15.9560546875 -50.177734375 20.13671875 c 0
 -97.431640625 57.2646484375 -98.7255859375 129.8671875 -58.580078125 176.522460938 c 0
-116.649414062 -206.780273438 m 1
 -131.350585938 -193.219726562 l 1
 82.6494140625 38.7802734375 l 1
 97.3505859375 25.2197265625 l 1
 -116.649414062 -206.780273438 l 1
EndSplineSet
EndChar

StartChar: uni0652
Encoding: 1618 1618 57
Width: 0
VWidth: -36
Flags: HW
LayerCount: 2
Back
SplineSet
-3 187 m 0
 54 189 102 139 102 86 c 0
 102 33 56 -11 1 -11 c 0
 -54 -11 -98 31 -102 85 c 0
 -107 139 -60 185 -3 187 c 0
EndSplineSet
Fore
SplineSet
-2.6494140625 177.005859375 m 0
 -54.859375 175.173828125 -96.427734375 133.278320312 -92.0341796875 85.830078125 c 1
 -88.400390625 36.76953125 -48.7119140625 -1 1 -1 c 0
 50.787109375 -1 92 38.92578125 92 86 c 0
 92 133.3515625 48.375 178.796875 -2.6494140625 177.005859375 c 0
-3.3505859375 196.994140625 m 0
 59.625 199.203125 112 144.6484375 112 86 c 0
 112 27.07421875 61.212890625 -21 1 -21 c 0
 -59.2880859375 -21 -107.599609375 25.23046875 -111.965820312 84.169921875 c 1
 -117.572265625 144.721679688 -65.140625 194.826171875 -3.3505859375 196.994140625 c 0
EndSplineSet
EndChar

StartChar: uni064F.alt
Encoding: 65559 -1 58
Width: 0
VWidth: -36
Flags: HW
LayerCount: 2
Back
SplineSet
108 197 m 0
 165 199 212 148 212 95 c 0
 212 42 166 -1 111 -1 c 0
 56 -1 13 40 9 94 c 0
 4 148 51 195 108 197 c 0
-212 -4 m 1
 103 -1 l 1
EndSplineSet
Fore
SplineSet
108.350585938 187.005859375 m 0
 56.275390625 185.178710938 14.564453125 142.3671875 18.9658203125 94.830078125 c 1
 22.6025390625 45.736328125 61.240234375 9 111 9 c 0
 160.926757812 9 202 48.0234375 202 95 c 0
 202 142.579101562 159.155273438 188.7890625 108.350585938 187.005859375 c 0
107.649414062 206.994140625 m 0
 170.844726562 209.2109375 222 153.420898438 222 95 c 0
 222 35.9765625 171.073242188 -11 111 -11 c 0
 50.759765625 -11 3.3974609375 34.263671875 -0.9658203125 93.169921875 c 1
 -6.564453125 153.6328125 45.724609375 204.821289062 107.649414062 206.994140625 c 0
-211.904296875 -14 m 1
 -212.095703125 6 l 1
 102.904296875 9 l 1
 103.095703125 -11 l 1
 -211.904296875 -14 l 1
EndSplineSet
EndChar

StartChar: uni06A1.fina
Encoding: 65560 -1 59
Width: 1000
VWidth: -36
Flags: HW
LayerCount: 2
Back
SplineSet
728 33 m 1
 934 33 l 1
 934 1 l 1
 728 1 l 1
 728 -129 l 0
 728 -163.966796875 700.494140625 -199 657 -199 c 0
 165 -199 l 0
 100.721679688 -199 50 -156.375 50 -89 c 0
 50 63 l 1
 82 63 l 1
 82 -89 l 0
 82 -137.625 115.278320312 -167 165 -167 c 0
 657 -167 l 0
 681.505859375 -167 696 -148.033203125 696 -129 c 0
 696 1 l 1
 672 1 l 0
 575.08203125 1 492.977539062 -14.6875 440.295898438 72.7421875 c 0
 394.826171875 147.766601562 434.116210938 239.389648438 489.318359375 275.440429688 c 1
 551.604492188 315.233398438 659.670898438 308.62890625 706.67578125 234.193359375 c 0
 720.174804688 212.817382812 728 186.211914062 728 155 c 0
 728 33 l 1
696 33 m 1
 696 155 l 0
 696 180.90625 689.686523438 201.1640625 679.619140625 217.107421875 c 0
 644.567382812 272.614257812 556.266601562 280.239257812 506.681640625 248.559570312 c 1
 463.883789062 220.610351562 433.182617188 146.219726562 467.693359375 89.275390625 c 1
 509.032226562 20.6708984375 566.915039062 33 672 33 c 0
 696 33 l 1
66 63 m 1
 66 -89 l 2
 66 -147 108 -183 165 -183 c 2
 657 -183 l 2
 691 -183 712 -156 712 -129 c 2
 712 155 l 2
 712 283 570 308 498 262 c 0
 449 230 414 147 454 81 c 0
 501 3 571 17 672 17 c 2
 934 17 l 1
EndSplineSet
Fore
SplineSet
696 155 m 0
 696 180.90625 689.686523438 201.1640625 679.619140625 217.107421875 c 0
 644.567382812 272.614257812 556.266601562 280.239257812 506.681640625 248.559570312 c 0
 463.883789062 220.610351562 433.182617188 146.219726562 467.693359375 89.275390625 c 0
 503.866765474 29.2433112547 548 29 703 32 c 0
 934 32 l 1
 934 0 l 1
 707.5 0.0380859375 l 0
 548.499023438 -2.6015625 486.677129964 -4.23143234404 440.295898438 72.7421875 c 0
 394.826171875 147.766601562 434.116210938 239.389648438 489.318359375 275.440429688 c 0
 551.604492188 315.233398438 659.670898438 308.62890625 706.67578125 234.193359375 c 0
 720.174804688 212.817382812 728 186.211914062 728 155 c 2
 728 -129 l 2
 728 -163.966796875 700.494140625 -199 657 -199 c 2
 165 -199 l 2
 100.721679688 -199 50 -156.375 50 -89 c 2
 50 63 l 1
 82 63 l 1
 82 -89 l 2
 82 -137.625 115.278320312 -167 165 -167 c 2
 657 -167 l 2
 681.505859375 -167 696 -148.033203125 696 -129 c 2
 696 -129 696 60.3333333333 696 155 c 0
EndSplineSet
EndChar

StartChar: uni066F
Encoding: 1647 1647 60
Width: 1000
VWidth: -36
Flags: HW
LayerCount: 2
Back
SplineSet
696 1 m 1
 672 1 l 0
 575.08203125 1 492.977539062 -14.6875 440.295898438 72.7421875 c 0
 394.826171875 147.766601562 434.116210938 239.389648438 489.318359375 275.440429688 c 0
 551.604492188 315.233398438 659.670898438 308.62890625 706.67578125 234.193359375 c 0
 720.174804688 212.817382812 728 186.211914062 728 155 c 2
 728 -129 l 2
 728 -163.966796875 700.494140625 -199 657 -199 c 2
 235 -199 l 2
 170.721679688 -199 120 -156.375 120 -89 c 2
 120 153 l 1
 152 153 l 1
 152 -89 l 2
 152 -137.625 185.278320312 -167 235 -167 c 2
 657 -167 l 2
 681.505859375 -167 696 -148.033203125 696 -129 c 2
 696 1 l 1
696 33 m 1
 696 155 l 2
 696 180.90625 689.686523438 201.1640625 679.619140625 217.107421875 c 0
 644.567382812 272.614257812 556.266601562 280.239257812 506.681640625 248.559570312 c 0
 463.883789062 220.610351562 433.182617188 146.219726562 467.693359375 89.275390625 c 0
 509.032226562 20.6708984375 566.915039062 33 672 33 c 0
 696 33 l 1
136 153 m 1
 136 -89 l 2
 136 -147 178 -183 235 -183 c 2
 657 -183 l 2
 691 -183 712 -156 712 -129 c 2
 712 155 l 2
 712 283 570 308 498 262 c 0
 449 230 414 147 454 81 c 0
 501 3 571 17 672 17 c 10
 705 17 l 25
EndSplineSet
Fore
SplineSet
696 155 m 0
 696 180.90625 689.686523438 201.1640625 679.619140625 217.107421875 c 0
 644.567382812 272.614257812 556.266601562 280.239257812 506.681640625 248.559570312 c 0
 463.883789062 220.610351562 433.182617188 146.219726562 467.693359375 89.275390625 c 0
 511.46498451 16.6335811396 595 26.390625 710 38 c 1
 710 6 l 1
 616.543945312 -5.5341796875 496.859623364 -21.1301508603 440.295898438 72.7421875 c 0
 394.826171875 147.766601562 434.116210938 239.389648438 489.318359375 275.440429688 c 0
 551.604492188 315.233398438 659.670898438 308.62890625 706.67578125 234.193359375 c 0
 720.174804688 212.817382812 728 186.211914062 728 155 c 2
 728 -129 l 2
 728 -163.966796875 700.494140625 -199 657 -199 c 2
 235 -199 l 2
 170.721679688 -199 120 -156.375 120 -89 c 2
 120 153 l 1
 152 153 l 1
 152 -89 l 2
 152 -137.625 185.278320312 -167 235 -167 c 2
 657 -167 l 2
 681.505859375 -167 696 -148.033203125 696 -129 c 2
 696 -129 696 60.3333333333 696 155 c 0
EndSplineSet
EndChar

StartChar: uni066F.fina
Encoding: 65561 -1 61
Width: 1000
VWidth: -36
Flags: HW
LayerCount: 2
Back
SplineSet
728 33 m 1
 934 33 l 1
 934 1 l 1
 728 1 l 1
 728 -129 l 0
 728 -163.966796875 700.494140625 -199 657 -199 c 0
 235 -199 l 0
 170.721679688 -199 120 -156.375 120 -89 c 0
 120 153 l 1
 152 153 l 1
 152 -89 l 0
 152 -137.625 185.278320312 -167 235 -167 c 0
 657 -167 l 0
 681.505859375 -167 696 -148.033203125 696 -129 c 0
 696 1 l 1
 672 1 l 0
 575.08203125 1 492.977539062 -14.6875 440.295898438 72.7421875 c 0
 394.826171875 147.766601562 434.116210938 239.389648438 489.318359375 275.440429688 c 1
 551.604492188 315.233398438 659.670898438 308.62890625 706.67578125 234.193359375 c 0
 720.174804688 212.817382812 728 186.211914062 728 155 c 0
 728 33 l 1
696 33 m 1
 696 155 l 0
 696 180.90625 689.686523438 201.1640625 679.619140625 217.107421875 c 0
 644.567382812 272.614257812 556.266601562 280.239257812 506.681640625 248.559570312 c 1
 463.883789062 220.610351562 433.182617188 146.219726562 467.693359375 89.275390625 c 1
 509.032226562 20.6708984375 566.915039062 33 672 33 c 0
 696 33 l 1
136 153 m 1
 136 -89 l 2
 136 -147 178 -183 235 -183 c 2
 657 -183 l 2
 691 -183 712 -156 712 -129 c 2
 712 155 l 2
 712 283 570 308 498 262 c 0
 449 230 414 147 454 81 c 0
 501 3 571 17 672 17 c 2
 934 17 l 1
EndSplineSet
Fore
SplineSet
696 155 m 0
 696 180.90625 689.686523438 201.1640625 679.619140625 217.107421875 c 0
 644.567382812 272.614257812 556.266601562 280.239257812 506.681640625 248.559570312 c 0
 463.883789062 220.610351562 433.182617188 146.219726562 467.693359375 89.275390625 c 0
 503.866765474 29.2433112547 548 29 703 32 c 0
 934 32 l 1
 934 0 l 1
 707.5 0.0380859375 l 0
 548.499023438 -2.6015625 486.677129964 -4.23143234404 440.295898438 72.7421875 c 0
 394.826171875 147.766601562 434.116210938 239.389648438 489.318359375 275.440429688 c 0
 551.604492188 315.233398438 659.670898438 308.62890625 706.67578125 234.193359375 c 0
 720.174804688 212.817382812 728 186.211914062 728 155 c 2
 728 -129 l 2
 728 -163.966796875 700.494140625 -199 657 -199 c 2
 235 -199 l 2
 170.721679688 -199 120 -156.375 120 -89 c 2
 120 153 l 1
 152 153 l 1
 152 -89 l 2
 152 -137.625 185.278320312 -167 235 -167 c 2
 657 -167 l 2
 681.505859375 -167 696 -148.033203125 696 -129 c 2
 696 -129 696 60.3333333333 696 155 c 0
EndSplineSet
EndChar

StartChar: uni066F.init
Encoding: 65562 -1 62
Width: 1000
VWidth: -36
Flags: HW
LayerCount: 2
Back
SplineSet
696 141 m 1
 672 141 l 0
 575.08203125 141 492.977539062 125.3125 440.295898438 212.7421875 c 0
 394.826171875 287.766601562 434.116210938 379.389648438 489.318359375 415.440429688 c 1
 551.604492188 455.233398438 659.670898438 448.62890625 706.67578125 374.193359375 c 0
 720.174804688 352.817382812 728 326.211914062 728 295 c 0
 728 71 l 0
 728 36.033203125 700.494140625 1 657 1 c 0
 305 1 l 1
 305 33 l 1
 657 33 l 0
 681.505859375 33 696 51.966796875 696 71 c 0
 696 141 l 1
696 173 m 1
 696 295 l 0
 696 320.90625 689.686523438 341.1640625 679.619140625 357.107421875 c 0
 644.567382812 412.614257812 556.266601562 420.239257812 506.681640625 388.559570312 c 1
 463.883789062 360.610351562 433.182617188 286.219726562 467.693359375 229.275390625 c 1
 509.032226562 160.670898438 566.915039062 173 672 173 c 0
 696 173 l 1
305 17 m 9
 657 17 l 2
 691 17 712 44 712 71 c 2
 712 295 l 2
 712 423 570 448 498 402 c 0
 449 370 414 287 454 221 c 0
 501 143 571 157 672 157 c 10
 707.5 157 l 25
EndSplineSet
Fore
SplineSet
305 32 m 9
 657 32 l 2
 681.505859375 32 696 50.966796875 696 70 c 2
 696 70 696 200.333007812 696 295 c 0
 696 320.90625 689.686523438 341.1640625 679.619140625 357.107421875 c 0
 644.567382812 412.614257812 556.266601562 420.239257812 506.681640625 388.559570312 c 0
 463.883789062 360.610351562 433.182617188 286.219726562 467.693359375 229.275390625 c 0
 511.46484375 156.633789062 595 166.390625 710 178 c 1
 710 146 l 1
 616.543945312 134.465820312 496.859375 118.870117188 440.295898438 212.7421875 c 0
 394.826171875 287.766601562 434.116210938 379.389648438 489.318359375 415.440429688 c 0
 551.604492188 455.233398438 659.670898438 448.62890625 706.67578125 374.193359375 c 0
 720.174804688 352.817382812 728 326.211914062 728 295 c 2
 728 70 l 2
 728 35.033203125 700.494140625 0 657 0 c 2
 305 0 l 17
 305 32 l 9
EndSplineSet
EndChar

